# WaveFront *.obj file (generated by CINEMA 4D)

mtllib ./ruby.mtl

v 0 0.26286596059799 -0.42532607913017
v 0 -0.26286596059799 -0.42532607913017
v 0.42532607913017 0 -0.26286596059799
v 0.42532607913017 0 0.26286596059799
v 0 0.26286596059799 0.42532607913017
v 0 -0.26286596059799 0.42532607913017
v -0.42532607913017 0 0.26286596059799
v -0.42532607913017 0 -0.26286596059799
v 0.26286596059799 0.42532607913017 0
v -0.26286596059799 0.42532607913017 0
v -0.26286596059799 -0.42532607913017 0
v 0.26286596059799 -0.42532607913017 0
# 12 vertices

vn 0 0.93417233228683 -0.35682213306427
vn 0 0 0
vn 0.57735025882721 0.57735025882721 -0.57735025882721
vn 0.93417233228683 0.35682213306427 0
vn 0.57735025882721 0.57735025882721 0.57735025882721
vn 0 0.93417233228683 0.35682213306427
vn -0.57735025882721 0.57735025882721 0.57735025882721
vn -0.93417233228683 0.35682213306427 0
vn -0.57735025882721 0.57735025882721 -0.57735025882721
vn 0 -0.93417233228683 -0.35682213306427
vn 0.57735025882721 -0.57735025882721 -0.57735025882721
vn 0.93417233228683 -0.35682213306427 0
vn 0.57735025882721 -0.57735025882721 0.57735025882721
vn 0 -0.93417233228683 0.35682213306427
vn -0.57735025882721 -0.57735025882721 0.57735025882721
vn -0.93417233228683 -0.35682213306427 0
vn -0.57735025882721 -0.57735025882721 -0.57735025882721
vn -0.35682213306427 0 -0.93417233228683
vn 0.35682213306427 0 -0.93417233228683
vn 0.35682213306427 0 0.93417233228683
vn -0.35682213306427 0 0.93417233228683
# 21 normals

vt 0.69999998807907 0.307000041008 0
vt 0.60000002384186 0.1340000629425 0
vt 0.5 0.307000041008 0
vt 0 1 0
vt 0.40000000596046 0.1340000629425 0
vt 0.10000000149012 1 0
vt 0.19999998807907 0.82700002193451 0
vt 0 0.82700002193451 0
vt 0.30000001192093 1 0
vt 1 0.48000001907349 0
vt 0.80000001192093 0.48000001907349 0
vt 0.89999997615814 0.65299999713898 0
vt 0.69999998807907 0.65299999713898 0
vt 0.60000002384186 0.48000001907349 0
vt 0.30000001192093 0.65299999713898 0
vt 0.5 0.65299999713898 0
vt 0.39999997615814 0.48000001907349 0
vt 0.30000001192093 0.307000041008 0
vt 0.20000000298023 0.48000001907349 0
vt 0.10000000149012 0.65400004386902 0
vt 0.39999997615814 0.82700002193451 0
vt 0.5 1 0
vt 0.60000002384186 0.82700002193451 0
# 23 texture coordinates

o å®çŸ³
usemtl default
f 10/1/1 9/2/1 1/3/1
f 9/2/3 3/5/3 1/3/3
f 9/6/4 4/7/4 3/8/4
f 9/6/5 5/9/5 4/7/5
f 9/10/6 10/11/6 5/12/6
f 5/12/7 10/11/7 7/13/7
f 7/13/8 10/11/8 8/14/8
f 10/1/9 1/3/9 8/14/9
f 12/15/10 11/16/10 2/17/10
f 3/18/11 12/19/11 2/17/11
f 3/20/12 4/7/12 12/15/12
f 4/7/13 6/21/13 12/15/13
f 6/21/14 11/16/14 12/15/14
f 6/21/15 7/22/15 11/23/15
f 7/13/16 8/14/16 11/16/16
f 8/14/17 2/17/17 11/16/17
f 2/17/18 8/14/18 1/3/18
f 3/18/19 2/17/19 1/3/19
f 5/9/20 6/21/20 4/7/20
f 5/9/21 7/22/21 6/21/21

